<svg xmlns="http://www.w3.org/2000/svg" xmlns:xlink="http://www.w3.org/1999/xlink" x="0" y="0" width="662" height="831" style="
        width:662px;
        height:831px;
        background: transparent;
        fill: none;
">
        
        
        <svg xmlns="http://www.w3.org/2000/svg" class="role-diagram-draw-area"><g class="shapes-region" style="stroke: black; fill: none;"><g class="composite-shape"><path class="real" d=" M129,190 C129,155.76 156.76,128 191,128 C225.24,128 253,155.76 253,190 C253,224.24 225.24,252 191,252 C156.76,252 129,224.24 129,190 Z" style="stroke-width: 1; stroke: rgb(0, 0, 0); fill: none; fill-opacity: 1;"/></g><g class="arrow-line"><path class="connection real" stroke-dasharray="" d="  M191,69 L191,191" style="stroke: rgb(0, 0, 0); stroke-width: 1; fill: none; fill-opacity: 1;"/></g><g class="arrow-line"><path class="connection real" stroke-dasharray="" d="  M191,191 L244,158" style="stroke: rgb(0, 0, 0); stroke-width: 1; fill: none; fill-opacity: 1;"/></g><g class="composite-shape"><path class="real" d=" M190.9,174.89 C190.99,174.74 191.1,174.59 191.21,174.45 C193.16,172.07 197.35,172.28 200.57,174.92 C203.73,177.51 204.78,181.47 202.98,183.87 L197.04,179.23 Z" style="stroke-width: 1; stroke: none; fill: none; fill-opacity: 1;"/><path class="real" d=" M190.9,174.89 C190.99,174.74 191.1,174.59 191.21,174.45 C193.16,172.07 197.35,172.28 200.57,174.92 C203.73,177.51 204.78,181.47 202.98,183.87" style="stroke-width: 1; stroke: rgb(0, 0, 0); fill: none; fill-opacity: 1;"/></g><g class="composite-shape"><path class="real" d=" M129,185.67 C129,177.57 156.76,171 191,171 C225.24,171 253,177.57 253,185.67 C253,193.77 225.24,200.33 191,200.33 C156.76,200.33 129,193.77 129,185.67 Z" style="stroke-width: 1; stroke: rgb(0, 0, 0); fill: none; fill-opacity: 1; stroke-dasharray: 6, 6;"/></g><g class="composite-shape"><path class="real" d=" M139.67,157.17 C139.67,152.66 162.65,149 191,149 C219.35,149 242.33,152.66 242.33,157.17 C242.33,161.68 219.35,165.33 191,165.33 C162.65,165.33 139.67,161.68 139.67,157.17 Z" style="stroke-width: 1; stroke: rgb(0, 0, 0); fill: none; fill-opacity: 1; stroke-dasharray: 6, 6;"/></g><g class="arrow-line"><path class="connection real" stroke-dasharray="" d="  M191,69 L244,158" style="stroke: rgb(0, 0, 0); stroke-width: 1; fill: none; fill-opacity: 1;"/></g><g/></g><g/><g/><g/></svg>
        <svg xmlns="http://www.w3.org/2000/svg" xmlns:xlink="http://www.w3.org/1999/xlink" width="660" height="829" style="width:660px;height:829px;font-family:Asana-Math, Asana;background:transparent;"><g><g><g><text x="167" y="107" style="white-space:pre;stroke:none;fill:rgb(0,0,0);fill-opacity:1;font-size:18px;font-family:Arial, Helvetica, sans-serif;font-weight:400;font-style:normal;dominant-baseline:text-before-edge;text-decoration:none;">2R</text></g></g></g><g><g><g><text x="220.5" y="177.5" style="white-space:pre;stroke:none;fill:rgb(0,0,0);fill-opacity:1;font-size:18px;font-family:Arial, Helvetica, sans-serif;font-weight:400;font-style:normal;dominant-baseline:text-before-edge;text-decoration:none;">R</text></g></g></g><g><g><g><text x="173" y="180.65625" style="white-space:pre;stroke:none;fill:rgb(0,0,0);fill-opacity:1;font-size:18px;font-family:Arial, Helvetica, sans-serif;font-weight:400;font-style:normal;dominant-baseline:text-before-edge;text-decoration:none;">O</text></g></g></g><g><g><g><text x="194" y="52" style="white-space:pre;stroke:none;fill:rgb(0,0,0);fill-opacity:1;font-size:18px;font-family:Arial, Helvetica, sans-serif;font-weight:400;font-style:normal;dominant-baseline:text-before-edge;text-decoration:none;">S</text></g></g></g><g><g><g><text x="248" y="146" style="white-space:pre;stroke:none;fill:rgb(0,0,0);fill-opacity:1;font-size:18px;font-family:Arial, Helvetica, sans-serif;font-weight:400;font-style:normal;dominant-baseline:text-before-edge;text-decoration:none;">T</text></g></g></g><g transform="matrix(0.9987105118390394,-0.050767248716117104,0.050767248716117104,0.9987105118390394,-8.923009956173985,10.169157296498668)"><g><g><g><g><g><g transform="matrix(1,0,0,1,190.5078125,186.734375)"><path transform="matrix(0.017,0,0,-0.017,0,0)" d="M237 -16C473 -16 572 316 576 504C578 618 546 702 419 702C159 702 72 412 69 199C67 80 101 -16 237 -16ZM401 676C536 676 506 491 485 381L169 381C194 485 272 676 401 676ZM253 13C102 13 147 261 163 349L479 349C454 237 396 13 253 13Z" stroke="rgb(0,0,0)" stroke-opacity="1" stroke-width="8" fill="rgb(0,0,0)" fill-opacity="1"></path></g></g></g></g></g></g></g></svg>
</svg>
